:SAMPLES-PER-SECOND 30
:FULLY-SPECIFIED
:DEGREES
1
root  35.0805598 36.50470944 -14.93212933 9.748714447 1.085339069 3.020810127
lowerback  -8.265370369 0.4730969369 2.108109474
upperback  -4.012700081 0.1503639966 -2.280620098
thorax  0.5003479719 -0.1195250005 -3.531699896
lowerneck  -16.81150055 1.935789943 1.448009968
upperneck  15.49769974 1.456650019 3.524090052
head  7.52779007 1.065140009 1.079980016
lclavicle  0 -4.497500157e-015 -2.743230041e-014
lhumerus  -43.99309921 24.75370026 71.84690094
lradius  -0.03262099624 -6.507048965e-006 27.88809776
lwrist  4.824992743e-007 -3.790274832e-007 -29.75209999
lhand  -4.413167194e-031 -36.85710144 -10.38479996
lfingers  90 7.125020027 -90
lthumb  94.73460718 -25.22747468 100.9968456
rclavicle  0 -4.497500157e-015 -2.743230041e-014
rhumerus  -53.62350082 -35.78300095 -56.00099945
rradius  -5.16745672e-007 2.214343908e-008 35.62400055
rwrist  1.380293725e-006 2.528095422e-007 -139.3939972
rhand  -3.535513218e-031 -2.854949951 -7.66711998
rfingers  -90 -7.125020027 -90
rthumb  -86.61206786 -7.981945253 -66.91035963
rfemur  -13.45100784 15.03273964 13.53745937
rtibia  -1.195771933 0.9121550322 21.79811668
rfoot  -0.9759660959 -18.6746788 -40.12702179
rtoes  4.138733712 19.58426543 -102.1819001
lfemur  -11.42563248 -17.42389297 -18.11031914
ltibia  1.005898952 0.9930087924 17.05422401
lfoot  0.5489326715 -28.57937431 33.87961578
ltoes  -8.724062091 -18.06748907 -116.3255407
2
root  35.08209769 36.5026459 -14.92850687 9.752108574 1.066543221 3.020810127
lowerback  -8.265370369 0.479986012 2.122380018
upperback  -4.012700081 0.1583649963 -2.293649912
thorax  0.5003479719 -0.1195250005 -3.552609921
lowerneck  -16.80139923 1.925500035 1.464359999
upperneck  15.46619987 1.440129995 3.524189949
head  7.516069889 1.057919979 1.075030088
lclavicle  0 -4.497500157e-015 -2.743230041e-014
lhumerus  -43.98749924 24.76569939 71.82540131
lradius  -0.03262099624 -6.507048965e-006 27.87210083
lwrist  4.824992743e-007 -3.790274832e-007 -29.9375
lhand  -4.413426916e-031 -36.86159897 -10.43980026
lfingers  90 7.125020027 -90
lthumb  94.74829025 -25.28130286 101.0065857
rclavicle  0 -4.497500157e-015 -2.743230041e-014
rhumerus  -53.20209885 -35.25640106 -56.77719879
rradius  -5.16745672e-007 2.214343908e-008 36.03030014
rwrist  1.380293725e-006 2.528095422e-007 -140.2740021
rhand  -1.767945559e-031 -2.975209951 -7.610770226
rfingers  -90 -7.125020027 -90
rthumb  -86.61159503 -8.027599693 -67.02436996
rfemur  -13.45086098 15.0196743 13.52146912
rtibia  -1.195771933 0.899325192 21.79710007
rfoot  -0.9846229553 -18.71207619 -40.11915588
rtoes  4.186268932 19.57453898 -102.3237484
lfemur  -11.36220646 -17.39336586 -18.13998985
ltibia  1.047004104 1.016270399 16.96682358
lfoot  0.5565503836 -28.58260345 33.91201401
ltoes  -8.726770532 -18.0662148 -116.3342741
3
root  35.08352445 36.50144141 -14.9262601 9.765862465 1.051444769 3.020810127
lowerback  -8.265370369 0.4875792563 2.124800682
upperback  -4.006100178 0.1687059999 -2.306819916
thorax  0.5080839992 -0.1141719967 -3.567840099
lowerneck  -16.83009911 1.903949976 1.444149971
upperneck  15.48139954 1.402989984 3.577250004
head  7.526050091 1.043980002 1.092090011
lclavicle  0 -4.497500157e-015 -2.743230041e-014
lhumerus  -43.96369934 24.7446003 71.82659912
lradius  -0.03345552087 -6.507048965e-006 27.84160042
lwrist  4.824992743e-007 -3.790274832e-007 -30.11199951
lhand  -4.412260932e-031 -36.84140015 -10.50790024
lfingers  90 7.125020027 -90
lthumb  94.7532762 -25.34888405 100.9911416
rclavicle  0 -4.497500157e-015 -2.743230041e-014
rhumerus  -52.73400116 -34.58879852 -57.68099976
rradius  -5.16745672e-007 2.214343908e-008 36.51929855
rwrist  1.380293725e-006 2.528095422e-007 -141.1139984
rhand  -1.767802125e-031 -2.884380102 -7.58355999
rfingers  -90 -7.125020027 -90
rthumb  -86.58434033 -8.057315508 -66.93446639
rfemur  -13.49261093 15.02112865 13.50516224
rtibia  -1.195771933 0.9128451347 21.84262848
rfoot  -0.9910607934 -18.70135117 -40.07827377
rtoes  4.133481781 19.5853329 -102.1662321
lfemur  -11.30254555 -17.29582787 -18.17386627
ltibia  1.089848995 1.083619356 16.86433792
lfoot  0.5740816593 -28.67966461 33.93022156
ltoes  -8.730316873 -18.06454556 -116.3457101
4
root  35.08542879 36.50834692 -14.92517426 9.791707039 1.025251746 3.024353266
lowerback  -8.268429756 0.4958089292 2.118859768
upperback  -3.990819931 0.1820890009 -2.308840036
thorax  0.5229660273 -0.1062420011 -3.564419985
lowerneck  -16.81769943 1.895920038 1.433400035
upperneck  15.42549992 1.39301002 3.602969885
head  7.505390167 1.040660024 1.100430012
lclavicle  0 -4.497500157e-015 -2.743230041e-014
lhumerus  -43.92842865 24.76939011 71.84099579
lradius  -0.0342778042 -6.507048965e-006 27.86610222
lwrist  4.824992743e-007 -3.790274832e-007 -30.06809998
lhand  -4.412474444e-031 -36.8451004 -10.40429974
lfingers  90 7.125020027 -90
lthumb  94.73315096 -25.24698361 100.9857853
rclavicle  0 -4.497500157e-015 -2.743230041e-014
rhumerus  -52.19390106 -33.78250122 -58.667099
rradius  -5.16745672e-007 2.214343908e-008 37.10110092
rwrist  1.380293725e-006 2.528095422e-007 -141.9550018
rhand  -1.767773088e-031 -2.865639925 -7.639100075
rfingers  -90 -7.125020027 -90
rthumb  -86.60290143 -8.007207182 -66.91926836
rfemur  -13.5421629 15.06961155 13.49136448
rtibia  -1.195771933 0.9446303248 21.88237
rfoot  -1.001873493 -18.65194321 -40.08110046
rtoes  4.116659007 19.5887426 -102.1160506
lfemur  -11.3166666 -17.31734467 -18.1759758
ltibia  1.084412694 1.065071464 16.83796883
lfoot  0.5457032919 -28.61648369 33.9337883
ltoes  -8.709355485 -18.07439955 -116.2781298
5
root  35.08615869 36.51001397 -14.9226887 9.811766624 1.025115013 3.032068729
lowerback  -8.280900002 0.5046970248 2.120210171
upperback  -3.970469952 0.1959300041 -2.30776
thorax  0.5519589782 -0.09769070148 -3.562949896
lowerneck  -16.88470078 1.88733995 1.461300015
upperneck  15.46529961 1.384369969 3.54034996
head  7.530819893 1.033750057 1.075670004
lclavicle  0 -4.497500157e-015 -2.743230041e-014
lhumerus  -43.86790085 24.80680084 71.8864975
lradius  -0.03509804979 -6.507048965e-006 27.89550018
lwrist  4.824992743e-007 -3.790274832e-007 -29.87920189
lhand  -4.416052048e-031 -36.9070015 -10.66629982
lfingers  90 7.125020027 -90
lthumb  94.81749295 -25.50201483 101.0757362
rclavicle  0 -4.497500157e-015 -2.743230041e-014
rhumerus  -51.75419998 -33.18790054 -59.40660095
rradius  -5.16745672e-007 2.214343908e-008 37.74489975
rwrist  1.380293725e-006 2.528095422e-007 -142.5859985
rhand  -1.767598079e-031 -2.749979973 -7.59059
rfingers  -90 -7.125020027 -90
rthumb  -86.56258015 -8.057789603 -66.80391846
rfemur  -13.57056808 15.10744953 13.48145294
rtibia  -1.195771933 0.9420135617 21.90046692
rfoot  -1.005278468 -18.65185356 -40.08707809
rtoes  4.117511011 19.58857026 -102.1185919
lfemur  -11.33536148 -17.26086426 -18.1805191
ltibia  1.091263175 1.077184319 16.82739639
lfoot  0.5347017646 -28.63137245 33.87570572
ltoes  -8.695965129 -18.08067879 -116.2349774
6
root  35.08713489 36.50870436 -14.92227569 9.801167488 1.018449306 3.037195683
lowerback  -8.340189934 0.5187670588 2.106320143
upperback  -3.951859951 0.2158219963 -2.305510044
thorax  0.6053770185 -0.08616740257 -3.551249981
lowerneck  -16.92889977 1.879729986 1.437430024
upperneck  15.46650028 1.376929998 3.554699898
head  7.538630009 1.031273961 1.084069967
lclavicle  0 -4.497500157e-015 -2.743230041e-014
lhumerus  -43.8003006 24.85239983 71.9272995
lradius  -0.0359162651 -6.507048965e-006 27.9116993
lwrist  4.824992743e-007 -3.790274832e-007 -29.74769974
lhand  -4.41628348e-031 -36.9109993 -10.7159996
lfingers  90 7.125020027 -90
lthumb  94.82991905 -25.55066683 101.0844902
rclavicle  0 -4.497500157e-015 -2.743230041e-014
rhumerus  -51.26570129 -32.44649887 -60.25870132
rradius  -5.16745672e-007 2.214343908e-008 38.36970139
rwrist  1.380293725e-006 2.528095422e-007 -143.7120056
rhand  -1.767483896e-031 -2.671809912 -7.647109985
rfingers  -90 -7.125020027 -90
rthumb  -86.57081777 -8.00992263 -66.73093834
rfemur  -13.54649448 15.09932995 13.47946358
rtibia  -1.195771933 0.9190433621 21.87755394
rfoot  -0.9955367446 -18.68003082 -40.0790596
rtoes  4.127377617 19.5865718 -102.1480227
lfemur  -11.34932518 -17.27793694 -18.19115257
ltibia  1.078201175 1.035173655 16.87087822
lfoot  0.5159253478 -28.57143211 33.83055496
ltoes  -8.660381448 -18.09730638 -116.1203739
7
root  35.08666632 36.50612118 -14.91795037 9.777396202 1.045445561 3.04963088
lowerback  -8.385479927 0.5209999681 2.10209012
upperback  -3.945070028 0.2184949964 -2.297802448
thorax  0.6375529766 -0.08416169882 -3.542390108
lowerneck  -16.91040039 1.865350008 1.328760028
upperneck  15.37769985 1.359889984 3.704360008
head  7.504449844 1.030730844 1.147870064
lclavicle  0 -4.497500157e-015 -2.743230041e-014
lhumerus  -43.75939941 24.90570068 71.93650055
lradius  -0.03673244268 -6.507048965e-006 27.9095993
lwrist  4.824992743e-007 -3.790274832e-007 -29.86009979
lhand  -4.415195619e-031 -36.89220047 -10.66300011
lfingers  90 7.125020027 -90
lthumb  94.80984312 -25.4993929 101.0595365
rclavicle  0 -4.497500157e-015 -2.743230041e-014
rhumerus  -50.73360062 -31.62050056 -61.22710037
rradius  -5.16745672e-007 2.214343908e-008 39.05479813
rwrist  1.380293725e-006 2.528095422e-007 -144.5720062
rhand  -1.767424436e-031 -2.630179882 -7.772580147
rfingers  -90 -7.125020027 -90
rthumb  -86.61331156 -7.896958564 -66.69737197
rfemur  -13.49248886 15.03886032 13.48081493
rtibia  -1.195771933 0.8949116468 21.84905815
rfoot  -0.9787274003 -18.71319771 -40.04500198
rtoes  4.099939364 19.59211694 -102.066185
lfemur  -11.30134296 -17.30668449 -18.23222351
ltibia  1.108824492 1.016110301 16.85092354
lfoot  0.508441329 -28.53348923 33.79257584
ltoes  -8.683214672 -18.08664668 -116.1939006
8
root  35.08764853 36.50519604 -14.91596042 9.76360321 1.036709309 3.062808752
lowerback  -8.432069778 0.5244712234 2.095417261
upperback  -3.933990002 0.2212249935 -2.292279959
thorax  0.6748620272 -0.08230410516 -3.532390118
lowerneck  -16.94960022 1.870059967 1.297950029
upperneck  15.37469959 1.365319967 3.747060061
head  7.509449005 1.031246305 1.168166637
lclavicle  0 -4.497500157e-015 -2.743230041e-014
lhumerus  -43.8572998 24.81340027 72.01069641
lradius  -0.03754657134 -6.507048965e-006 28.05809975
lwrist  4.824992743e-007 -3.790274832e-007 -29.74510002
lhand  -0 -36.89910126 -10.67000008
lfingers  90 7.125020027 -90
lthumb  94.81459424 -25.50599207 101.0676351
rclavicle  0 -4.497500157e-015 -2.743230041e-014
rhumerus  -50.23320007 -30.87400055 -62.06639862
rradius  -5.16745672e-007 2.214343908e-008 39.81150055
rwrist  1.380293725e-006 2.528095422e-007 -145.451004
rhand  -1.767235359e-031 -2.493170023 -7.89027977
rfingers  -90 -7.125020027 -90
rthumb  -86.63577629 -7.796224266 -66.57039581
rfemur  -13.45716 15.0040226 13.46401119
rtibia  -1.196014643 0.8489970565 21.81631088
rfoot  -0.9931491613 -18.78461456 -40.08089828
rtoes  4.101465969 19.59180944 -102.0707377
lfemur  -11.28165817 -17.31747627 -18.26482582
ltibia  1.130261183 1.018587351 16.8566227
lfoot  0.5423049331 -28.55880737 33.83097076
ltoes  -8.70341918 -18.07718481 -116.2589974
